<svg width="180" height="180" viewBox="0 0 180 180" fill="none" xmlns="http://www.w3.org/2000/svg">
<rect width="180" height="180" rx="90" fill="#575F6A"/>
<path d="M44.9521 73.1255C44.9521 68.005 47.2796 63.7923 51.9346 60.4873C56.6361 57.1823 62.1755 55.5298 68.5527 55.5298C76.373 55.5298 81.8659 57.0892 85.0312 60.208C88.2432 63.3268 89.8491 68.5869 89.8491 75.9883V104.965C89.8491 107.572 90.8034 108.875 92.7119 108.875C94.248 108.875 96.2031 107.014 98.5771 103.29C100.253 103.429 101.393 104.174 101.999 105.524C101.673 105.989 101.114 106.827 100.323 108.038C99.5314 109.248 98.9495 110.109 98.5771 110.621C98.2048 111.133 97.6229 111.924 96.8315 112.995C96.0402 114.019 95.3885 114.787 94.8765 115.299C94.411 115.811 93.7593 116.417 92.9214 117.115C92.13 117.813 91.3853 118.348 90.687 118.721C90.0353 119.047 89.2673 119.326 88.3828 119.559C87.4984 119.838 86.6139 119.978 85.7295 119.978C83.402 119.978 81.4702 119.14 79.9341 117.464C78.4445 115.788 77.5601 113.205 77.2808 109.713C77.2342 109.76 76.5127 110.435 75.1162 111.738C73.7197 113.042 72.7422 113.926 72.1836 114.392C71.6715 114.811 70.6707 115.579 69.1812 116.696C67.7381 117.766 66.5046 118.535 65.4805 119C64.4564 119.465 63.1763 119.908 61.6401 120.327C60.104 120.792 58.5911 121.025 57.1016 121.025C54.7275 121.025 52.6095 120.699 50.7476 120.047C48.9321 119.396 47.5124 118.604 46.4883 117.673C45.4642 116.742 44.6263 115.672 43.9746 114.461C43.3229 113.205 42.8807 112.064 42.6479 111.04C42.4618 110.016 42.3687 108.992 42.3687 107.968C42.3687 104.849 42.8807 102.219 43.9048 100.078C44.9754 97.9364 46.9305 95.9347 49.77 94.0728C52.6561 92.2108 56.1938 90.5583 60.3833 89.1152C64.5728 87.6722 70.2052 86.043 77.2808 84.2275V74.522C77.2808 69.8205 76.2334 66.306 74.1387 63.9785C72.0905 61.651 69.3208 60.4873 65.8296 60.4873C62.7108 60.4873 60.0807 61.1157 57.9395 62.3726C55.8447 63.5828 54.5646 65.0026 54.0991 66.6318C58.661 67.3301 60.9419 69.8205 60.9419 74.103C60.9419 76.0581 60.2437 77.7804 58.8472 79.27C57.4507 80.7596 55.4956 81.5044 52.9819 81.5044C50.8872 81.5044 49.0252 80.7829 47.396 79.3398C45.7668 77.8503 44.9521 75.7788 44.9521 73.1255ZM77.2808 103.29V88.6963C72.9982 89.6738 69.4604 90.7445 66.6675 91.9082C63.8745 93.0254 61.7332 94.259 60.2437 95.6089C58.8006 96.9588 57.7998 98.3553 57.2412 99.7983C56.6826 101.195 56.4033 102.824 56.4033 104.686C56.4033 107.014 57.0783 108.852 58.4282 110.202C59.8247 111.506 61.5238 112.157 63.5254 112.157C68.1803 112.157 72.7655 109.201 77.2808 103.29ZM125.739 103.569C126.903 103.569 128.02 103.802 129.09 104.267C130.161 104.733 131.092 105.361 131.883 106.152C132.675 106.944 133.303 107.875 133.769 108.945C134.234 110.016 134.467 111.133 134.467 112.297C134.467 113.461 134.234 114.578 133.769 115.648C133.35 116.673 132.744 117.604 131.953 118.441C131.162 119.233 130.231 119.861 129.16 120.327C128.09 120.792 126.949 121.025 125.739 121.025C124.528 121.025 123.388 120.792 122.317 120.327C121.247 119.908 120.316 119.303 119.524 118.511C118.733 117.72 118.105 116.789 117.639 115.718C117.22 114.648 117.011 113.507 117.011 112.297C117.011 111.087 117.243 109.946 117.709 108.875C118.174 107.805 118.803 106.874 119.594 106.083C120.386 105.291 121.293 104.686 122.317 104.267C123.388 103.802 124.528 103.569 125.739 103.569Z" fill="white"/>
</svg>
